# xmcd
#
# Track frame offsets:
#	150
#	14578
#	33990
#	51325
#	72790
#	84805
#	111370
#	130035
#	149463
#
# Disc length: 2300 seconds
#
# Revision: 0
# Processed by: cddbd v1.5.2PL0 Copyright (c) Steve Scherf et al.
# Submitted via: EasyCDDAExtractor 16.0.9.1
#
DISCID=7708fa09
DTITLE=John Mayall - R-051 Why Worry
DYEAR=1995
DGENRE=Blues
TTITLE0=Why Worry
TTITLE1=Road Show
TTITLE2=Mama Talk To Your Daughter
TTITLE3=A Big Man
TTITLE4=Lost And Gone
TTITLE5=Mexico City
TTITLE6=John Lee Boogie
TTITLE7=Reaching For A Mountain
TTITLE8=Baby, What You Want Me To Do
EXTD=
EXTT0=
EXTT1=
EXTT2=
EXTT3=
EXTT4=
EXTT5=
EXTT6=
EXTT7=
EXTT8=
PLAYORDER=
